<?xml version="1.0" encoding="UTF-8" standalone="no"?>
<svg
   width="579.65601"
   height="579.65601"
   viewBox="-243 -243 469.52136 469.52136"
   version="1.1"
   id="svg6"
   sodipodi:docname="cross_bottony.svg"
   inkscape:version="1.2.2 (b0a8486541, 2022-12-01)"
   xmlns:inkscape="http://www.inkscape.org/namespaces/inkscape"
   xmlns:sodipodi="http://sodipodi.sourceforge.net/DTD/sodipodi-0.dtd"
   xmlns="http://www.w3.org/2000/svg"
   xmlns:svg="http://www.w3.org/2000/svg">
  <defs
     id="defs10" />
  <sodipodi:namedview
     id="namedview8"
     pagecolor="#ffffff"
     bordercolor="#666666"
     borderopacity="1.0"
     inkscape:showpageshadow="2"
     inkscape:pageopacity="0.0"
     inkscape:pagecheckerboard="0"
     inkscape:deskcolor="#d1d1d1"
     showgrid="false"
     inkscape:zoom="0.78666666"
     inkscape:cx="254.23729"
     inkscape:cy="385.16949"
     inkscape:window-width="1854"
     inkscape:window-height="1131"
     inkscape:window-x="0"
     inkscape:window-y="0"
     inkscape:window-maximized="1"
     inkscape:current-layer="svg6" />
  <title
     id="title2">Cross Bottony (Botonny) of Heraldry</title>
  <path
     d="m -135.24232,-33.239323 a 32.75,32.75 0 1 0 -57.433,-2.635 32.75,32.75 0 1 0 0,55.27 32.75,32.75 0 1 0 57.433,-2.635 H -33.239323 V 118.76368 a 32.75,32.75 0 1 0 -2.635,57.433 32.75,32.75 0 1 0 55.27,0 32.75,32.75 0 1 0 -2.635,-57.433 V 16.760677 H 118.76368 a 32.75,32.75 0 1 0 57.433,2.635 32.75,32.75 0 1 0 0,-55.27 32.75,32.75 0 1 0 -57.433,2.635 H 16.760677 V -135.24232 a 32.75,32.75 0 1 0 2.635,-57.433 32.75,32.75 0 1 0 -55.27,0 32.75,32.75 0 1 0 2.635,57.433 v 102.002997 z"
     id="path4"
     style="fill:#1a3a1a;fill-opacity:1" />
</svg>
